<?xml version="1.0" encoding="utf-8"?>
<!-- Generator: Adobe Illustrator 23.0.0, SVG Export Plug-In . SVG Version: 6.00 Build 0)  -->
<svg version="1.1" id="light" xmlns="http://www.w3.org/2000/svg" xmlns:xlink="http://www.w3.org/1999/xlink" x="0px" y="0px"
	 viewBox="0 0 512 512" style="enable-background:new 0 0 512 512;" xml:space="preserve">
<style type="text/css">
	.st0{fill:#FF485A;}
	.st1{fill:#FFBBC0;}
</style>
<g>
	<path class="st0" d="M394.7,490.7h-320c-29.4,0-53.3-23.9-53.3-53.3v-320C21.3,87.9,45.3,64,74.7,64h192c5.9,0,10.7,4.8,10.7,10.7
		s-4.8,10.7-10.7,10.7h-192c-17.6,0-32,14.4-32,32v320c0,17.6,14.4,32,32,32h320c17.6,0,32-14.4,32-32v-192
		c0-5.9,4.8-10.7,10.7-10.7s10.7,4.8,10.7,10.7v192C448,466.7,424.1,490.7,394.7,490.7z"/>
</g>
<g>
	<path class="st1" d="M480,192c-5.9,0-10.7-4.8-10.7-10.7V42.7H330.7c-5.9,0-10.7-4.8-10.7-10.7s4.8-10.7,10.7-10.7H480
		c5.9,0,10.7,4.8,10.7,10.7v149.3C490.7,187.2,485.9,192,480,192z"/>
</g>
<g>
	<path class="st1" d="M224,298.7c-2.7,0-5.5-1-7.6-3.1c-4.2-4.2-4.2-10.9,0-15.1l256-256c4.2-4.2,10.9-4.2,15.1,0s4.2,10.9,0,15.1
		l-256,256C229.5,297.6,226.7,298.7,224,298.7L224,298.7z"/>
</g>
</svg>
