<?xml version="1.0" encoding="utf-8"?>
<!-- Generator: Adobe Illustrator 23.0.0, SVG Export Plug-In . SVG Version: 6.00 Build 0)  -->
<svg version="1.1" id="Capa_1" xmlns="http://www.w3.org/2000/svg" xmlns:xlink="http://www.w3.org/1999/xlink" x="0px" y="0px"
	 viewBox="0 0 512 512" style="enable-background:new 0 0 512 512;" xml:space="preserve">
<style type="text/css">
	.st0{fill:#FF485A;}
	.st1{fill:#FFBBC0;}
</style>
<g>
	<g>
		<path class="st0" d="M432,0h-76c-44.1,0-80,35.9-80,80v76c0,44.1,35.9,80,80,80h76c44.1,0,80-35.9,80-80V80
			C512,35.9,476.1,0,432,0z M472,156c0,22.1-17.9,40-40,40h-76c-22.1,0-40-17.9-40-40V80c0-22.1,17.9-40,40-40h76
			c22.1,0,40,17.9,40,40V156z"/>
	</g>
</g>
<g>
	<g>
		<path class="st0" d="M156,0H80C35.9,0,0,35.9,0,80v76c0,44.1,35.9,80,80,80h76c44.1,0,80-35.9,80-80V80C236,35.9,200.1,0,156,0z
			 M196,156c0,22.1-17.9,40-40,40H80c-22.1,0-40-17.9-40-40V80c0-22.1,17.9-40,40-40h76c22.1,0,40,17.9,40,40V156z"/>
	</g>
</g>
<g>
	<g>
		<path class="st0" d="M156,276H80c-44.1,0-80,35.9-80,80v76c0,44.1,35.9,80,80,80h76c44.1,0,80-35.9,80-80v-76
			C236,311.9,200.1,276,156,276z M196,432c0,22.1-17.9,40-40,40H80c-22.1,0-40-17.9-40-40v-76c0-22.1,17.9-40,40-40h76
			c22.1,0,40,17.9,40,40V432z"/>
	</g>
</g>
<g>
	<g>
		<path class="st1" d="M492,412c-11,0-20,9-20,20c0,22.1-17.9,40-40,40h-76c-22.1,0-40-17.9-40-40v-76c0-22.1,17.9-40,40-40h76
			c15.9,0,30.3,9.4,36.7,24c4.4,10.1,16.2,14.7,26.3,10.3c10.1-4.4,14.7-16.2,10.3-26.3c-12.7-29.1-41.5-48-73.3-48h-76
			c-44.1,0-80,35.9-80,80v76c0,44.1,35.9,80,80,80h76c44.1,0,80-35.9,80-80C512,421,503,412,492,412z"/>
	</g>
</g>
</svg>
